<svg xmlns="http://www.w3.org/2000/svg" viewBox="0 0 180 260" role="img" aria-label="top-down futuristic race car">
  <defs>
    <linearGradient id="body" x1="0" x2="0" y1="0" y2="1">
      <stop offset="0" stop-color="#f7fbff"/>
      <stop offset="0.48" stop-color="#43b8ff"/>
      <stop offset="1" stop-color="#0749b8"/>
    </linearGradient>
    <linearGradient id="glass" x1="0" x2="0" y1="0" y2="1">
      <stop offset="0" stop-color="#dff8ff"/>
      <stop offset="0.36" stop-color="#49ceff"/>
      <stop offset="1" stop-color="#061b52"/>
    </linearGradient>
    <linearGradient id="wing" x1="0" x2="1" y1="0" y2="0">
      <stop offset="0" stop-color="#0b265d"/>
      <stop offset="0.5" stop-color="#e8f8ff"/>
      <stop offset="1" stop-color="#0b265d"/>
    </linearGradient>
    <filter id="glow" x="-30%" y="-30%" width="160%" height="160%">
      <feGaussianBlur stdDeviation="4" result="blur"/>
      <feMerge>
        <feMergeNode in="blur"/>
        <feMergeNode in="SourceGraphic"/>
      </feMerge>
    </filter>
  </defs>
  <g filter="url(#glow)" opacity="0.35">
    <ellipse cx="90" cy="210" rx="58" ry="30" fill="#00b8ff"/>
  </g>
  <g>
    <path d="M90 8 C112 22 132 56 137 104 L158 117 C166 122 170 136 166 150 L153 198 C149 214 137 225 122 228 L111 229 L104 244 C100 252 80 252 76 244 L69 229 L58 228 C43 225 31 214 27 198 L14 150 C10 136 14 122 22 117 L43 104 C48 56 68 22 90 8Z" fill="#08245b"/>
    <path d="M90 16 C108 30 123 64 126 113 L144 126 C151 132 153 141 150 153 L139 196 C136 207 127 214 116 216 L104 218 L98 237 C96 242 84 242 82 237 L76 218 L64 216 C53 214 44 207 41 196 L30 153 C27 141 29 132 36 126 L54 113 C57 64 72 30 90 16Z" fill="url(#body)"/>
    <path d="M90 24 C101 48 107 79 107 112 C107 142 101 166 90 183 C79 166 73 142 73 112 C73 79 79 48 90 24Z" fill="#effaff"/>
    <path d="M90 52 C103 70 110 96 110 123 C110 143 102 159 90 169 C78 159 70 143 70 123 C70 96 77 70 90 52Z" fill="url(#glass)" opacity="0.95"/>
    <path d="M90 18 L105 112 L90 183 L75 112Z" fill="#0d79ff" opacity="0.75"/>
    <path d="M43 107 L16 81 L9 104 L25 138 L49 129Z" fill="#eaf8ff"/>
    <path d="M137 107 L164 81 L171 104 L155 138 L131 129Z" fill="#eaf8ff"/>
    <path d="M36 145 L14 159 L24 211 L57 205 L63 172Z" fill="#0b62cf"/>
    <path d="M144 145 L166 159 L156 211 L123 205 L117 172Z" fill="#0b62cf"/>
    <path d="M44 189 L63 205 L58 226 L31 216Z" fill="#061b47"/>
    <path d="M136 189 L117 205 L122 226 L149 216Z" fill="#061b47"/>
    <path d="M49 41 L37 83 L54 96 L65 47Z" fill="#f8fdff"/>
    <path d="M131 41 L143 83 L126 96 L115 47Z" fill="#f8fdff"/>
    <path d="M33 132 L57 143" stroke="#65e7ff" stroke-width="7" stroke-linecap="round"/>
    <path d="M147 132 L123 143" stroke="#65e7ff" stroke-width="7" stroke-linecap="round"/>
    <path d="M42 216 C57 222 70 225 82 226" stroke="#ff314f" stroke-width="7" stroke-linecap="round"/>
    <path d="M138 216 C123 222 110 225 98 226" stroke="#ff314f" stroke-width="7" stroke-linecap="round"/>
    <path d="M39 74 C54 42 67 24 90 12 C113 24 126 42 141 74" fill="none" stroke="#90edff" stroke-width="3" opacity="0.75"/>
    <rect x="42" y="200" width="96" height="10" rx="5" fill="url(#wing)"/>
    <circle cx="90" cy="231" r="13" fill="#061739"/>
    <circle cx="90" cy="231" r="8" fill="#5ff4ff"/>
    <path d="M90 241 L78 260 L102 260Z" fill="#22c8ff" opacity="0.75"/>
  </g>
</svg>
